<?xml version="1.0" encoding="UTF-8" standalone="no"?>
<!DOCTYPE svg PUBLIC "-//W3C//DTD SVG 1.1//EN" "http://www.w3.org/Graphics/SVG/1.1/DTD/svg11.dtd">
<svg xmlns="http://www.w3.org/2000/svg" version="1.1" viewBox="0.00 0.00 1024.00 1024.00">
<path fill="#ffffff" d="
  M 519.71 498.07
  C 514.76 497.62 511.04 494.34 507.71 491.12
  Q 496.08 479.92 485.46 468.63
  Q 477.91 460.61 458.48 438.54
  Q 454.68 434.23 454.37 433.88
  Q 424.67 400.63 395.31 368.45
  Q 376.94 348.31 364.84 330.93
  C 351.58 311.88 341.56 289.16 335.76 267.22
  Q 334.66 263.09 333.24 254.59
  C 331.40 243.64 330.21 238.01 329.72 230.10
  C 329.44 225.43 328.75 219.92 329.05 214.31
  Q 331.70 166.22 354.70 124.89
  C 357.35 120.13 361.08 115.13 363.88 110.81
  Q 366.58 106.63 367.71 105.26
  Q 385.18 84.03 400.64 71.63
  Q 426.16 51.16 456.78 40.02
  Q 463.31 37.64 477.42 34.21
  Q 489.54 31.26 498.49 30.39
  Q 518.95 28.40 540.69 30.60
  C 551.41 31.68 562.05 34.33 572.44 37.27
  Q 591.94 42.78 610.88 52.62
  C 622.93 58.89 632.37 66.36 644.22 75.78
  Q 658.23 86.92 668.63 100.09
  Q 689.67 126.72 699.99 156.99
  Q 703.82 168.21 707.57 186.91
  Q 709.05 194.27 709.61 203.39
  Q 710.29 214.55 709.99 220.00
  Q 709.43 230.12 709.37 231.83
  C 708.92 244.08 706.25 255.22 703.10 268.30
  Q 700.06 280.96 694.52 293.64
  Q 687.51 309.69 682.59 317.60
  Q 680.35 321.22 667.87 338.76
  Q 662.60 346.17 659.99 349.14
  C 656.02 353.67 653.43 357.51 648.72 362.38
  C 644.13 367.13 638.70 373.90 633.55 379.34
  Q 625.99 387.33 621.94 391.94
  Q 588.60 429.86 574.52 445.28
  Q 566.20 454.40 551.28 470.30
  C 546.40 475.50 541.66 481.18 535.87 486.87
  Q 528.72 493.91 525.36 496.10
  Q 524.07 496.94 520.71 497.97
  A 2.56 2.56 0.0 0 1 519.71 498.07
  Z
  M 481.55 349.40
  C 486.85 351.07 492.42 352.35 497.29 352.90
  Q 517.80 355.21 538.50 352.97
  C 563.83 350.23 585.93 339.38 605.97 323.53
  C 617.95 314.05 628.35 300.50 635.70 287.47
  Q 644.68 271.57 647.52 258.29
  Q 651.12 241.47 652.38 229.23
  Q 653.30 220.20 652.33 211.95
  C 650.65 197.72 647.98 182.49 641.98 169.07
  Q 632.32 147.50 616.01 129.76
  Q 607.98 121.03 595.86 112.83
  Q 577.41 100.36 556.74 94.32
  Q 543.98 90.58 528.42 90.09
  Q 512.45 89.58 497.52 91.16
  Q 481.09 92.92 464.52 100.55
  Q 429.22 116.83 408.02 147.93
  C 398.17 162.38 390.12 181.16 388.46 198.88
  Q 386.36 221.25 388.41 242.83
  C 389.22 251.32 391.01 258.30 393.96 266.29
  C 403.42 291.84 418.64 313.29 440.95 329.05
  Q 460.29 342.71 481.55 349.40
  Z"
/>
<path fill="#ffffff" d="
  M 558.31 215.60
  C 561.23 217.97 565.96 222.97 570.05 227.47
  Q 579.09 237.42 590.72 250.03
  Q 592.04 251.46 594.45 254.77
  C 602.08 265.28 599.46 278.31 590.35 286.84
  C 585.09 291.77 573.99 299.41 566.45 297.58
  C 558.69 295.69 554.22 291.60 549.63 285.65
  Q 540.15 273.37 524.46 252.56
  Q 523.65 251.48 522.03 250.10
  A 0.66 0.65 -47.9 0 0 521.13 250.15
  C 520.86 250.43 520.64 251.26 520.30 251.71
  C 510.97 263.81 505.89 271.69 497.83 281.59
  Q 492.93 287.60 487.10 292.10
  Q 480.51 297.18 471.51 297.78
  Q 468.98 297.95 464.32 295.95
  Q 451.23 290.34 444.96 277.54
  C 444.03 275.64 443.60 272.44 443.87 270.10
  C 444.95 260.67 449.63 253.91 456.13 247.12
  Q 459.04 244.08 483.71 219.72
  Q 484.46 218.98 485.04 217.78
  A 0.98 0.97 30.9 0 0 484.73 216.57
  C 481.91 214.49 479.46 212.80 477.28 210.69
  Q 470.26 203.88 461.20 194.91
  Q 451.72 185.53 448.06 180.24
  Q 443.86 174.17 443.87 168.00
  Q 443.89 162.14 445.49 157.25
  C 446.47 154.30 449.13 151.22 451.80 148.46
  C 459.43 140.53 468.41 135.03 479.32 137.91
  C 485.19 139.45 490.75 145.87 494.55 150.70
  Q 507.33 166.96 519.70 183.41
  A 0.76 0.75 46.1 0 0 520.88 183.44
  C 528.47 174.22 535.24 164.30 542.55 154.80
  Q 545.61 150.83 549.28 147.11
  C 559.48 136.78 573.71 133.70 585.89 142.39
  Q 593.59 147.88 597.19 156.30
  C 599.88 162.61 599.22 168.52 595.87 174.68
  Q 591.04 183.57 584.63 189.66
  Q 575.26 198.58 565.48 207.22
  Q 561.37 210.86 558.21 214.50
  A 0.77 0.77 0.0 0 0 558.31 215.60
  Z"
/>
<path fill="#ffffff" d="
  M 572.38 486.23
  Q 572.62 485.17 576.20 480.95
  Q 596.90 456.56 597.67 455.66
  Q 603.41 448.95 607.92 444.70
  Q 609.92 442.82 612.73 442.70
  Q 621.63 442.31 627.00 442.49
  C 642.29 443.02 671.99 441.76 694.26 443.70
  C 701.99 444.37 710.90 445.74 719.26 448.87
  Q 733.63 454.25 743.12 459.85
  Q 758.33 468.82 769.25 481.48
  C 780.63 494.65 789.59 510.03 796.49 525.98
  Q 809.94 557.06 817.15 575.52
  C 823.37 591.47 830.40 607.02 836.13 623.87
  Q 836.77 625.72 838.45 626.98
  A 1.83 1.73 -48.4 0 0 840.75 626.78
  Q 842.41 625.18 842.91 622.90
  Q 844.48 615.70 845.74 611.00
  C 846.86 606.82 848.87 600.63 852.22 597.91
  C 857.89 593.31 864.60 590.42 872.00 589.81
  Q 879.34 589.22 891.27 589.42
  C 903.52 589.63 911.34 590.32 921.33 597.90
  C 927.72 602.73 930.11 609.96 931.08 618.10
  C 932.96 633.79 929.21 650.95 913.43 657.43
  Q 910.67 658.57 903.17 659.13
  C 889.76 660.14 876.45 660.37 862.50 660.77
  Q 860.37 660.83 860.93 663.77
  Q 861.35 665.96 864.00 668.25
  A 7.15 7.06 -86.0 0 1 865.41 669.89
  Q 875.95 686.75 880.81 696.51
  Q 888.05 711.07 891.33 729.94
  Q 892.91 739.01 892.76 764.68
  Q 892.47 815.35 892.68 850.26
  Q 892.78 865.90 892.64 874.51
  Q 892.39 890.58 886.26 905.73
  C 883.37 912.85 877.01 918.13 874.55 925.48
  Q 873.15 929.67 873.18 937.01
  C 873.21 950.24 873.83 962.27 871.83 974.12
  Q 869.13 990.14 853.72 994.67
  Q 849.62 995.87 838.50 995.81
  C 815.60 995.68 807.62 995.54 792.87 995.83
  Q 783.80 996.01 775.00 995.57
  C 762.12 994.93 752.17 987.76 750.07 974.73
  Q 748.92 967.57 749.02 955.50
  Q 749.23 930.53 748.96 926.53
  Q 748.73 923.13 745.25 923.12
  Q 693.03 923.03 320.00 923.10
  Q 304.66 923.10 296.00 923.38
  Q 292.36 923.49 289.71 924.43
  A 1.75 1.74 81.5 0 0 288.54 926.02
  Q 288.28 933.80 288.52 959.25
  Q 288.61 968.69 288.06 974.00
  Q 287.61 978.30 285.03 982.81
  C 278.02 995.05 266.51 995.99 253.77 995.83
  Q 225.85 995.49 203.01 995.90
  Q 199.76 995.96 192.74 995.44
  C 182.31 994.68 174.69 990.60 169.55 981.20
  C 168.32 978.95 167.61 973.20 167.59 970.19
  Q 167.50 959.36 167.73 944.75
  Q 167.88 935.98 167.22 929.02
  Q 166.82 924.75 164.17 921.10
  Q 155.78 909.55 155.75 909.51
  C 148.78 899.41 148.99 887.65 148.41 873.83
  Q 148.18 868.28 148.20 858.16
  Q 148.31 815.98 148.21 761.75
  Q 148.19 754.19 148.68 744.73
  C 149.44 729.96 150.21 718.72 154.97 706.73
  Q 157.01 701.59 161.60 692.38
  C 166.18 683.21 175.39 670.89 179.51 663.31
  Q 180.70 661.11 178.32 659.75
  A 1.03 1.02 -43.0 0 0 177.36 659.72
  Q 176.36 660.20 173.56 660.33
  Q 155.01 661.19 137.16 659.81
  Q 129.42 659.22 122.95 656.67
  A 7.66 7.64 -15.1 0 1 121.10 655.61
  Q 111.57 648.12 109.60 636.44
  C 107.68 625.02 108.84 612.40 114.46 601.98
  Q 115.98 599.17 119.74 596.98
  C 128.28 591.99 133.57 589.68 142.79 589.45
  Q 155.28 589.14 165.53 589.92
  C 171.30 590.35 176.85 591.16 181.47 594.13
  C 191.23 600.43 193.04 612.43 196.65 622.82
  Q 197.92 626.47 200.31 629.10
  A 0.52 0.52 0.0 0 0 201.17 628.97
  C 206.12 618.03 209.87 607.36 214.47 596.18
  Q 236.93 541.64 245.77 521.27
  Q 257.53 494.17 277.56 474.41
  Q 285.19 466.89 298.43 458.97
  Q 318.93 446.69 342.52 444.05
  C 350.88 443.11 358.99 442.63 367.85 442.61
  Q 418.90 442.54 426.00 442.60
  C 428.65 442.62 430.34 443.78 432.22 445.90
  Q 449.95 465.98 452.04 468.61
  C 458.53 476.76 462.81 481.79 465.20 486.06
  A 0.46 0.46 0.0 0 1 464.82 486.74
  Q 458.46 486.99 449.00 487.05
  Q 436.79 487.13 382.76 486.99
  Q 374.28 486.96 363.07 487.56
  Q 351.67 488.16 343.59 490.18
  Q 308.17 499.00 290.25 531.68
  Q 284.27 542.59 274.61 566.57
  Q 263.14 595.09 255.80 615.05
  C 253.97 620.03 251.57 627.20 252.87 632.16
  C 255.03 640.38 267.99 639.42 274.74 639.42
  Q 297.22 639.39 773.50 639.42
  C 780.40 639.42 787.22 635.68 785.96 627.76
  Q 785.32 623.67 783.35 618.12
  C 780.46 609.98 778.32 604.99 775.59 596.73
  C 770.14 580.27 764.36 567.50 755.58 546.65
  Q 751.33 536.57 745.36 526.63
  Q 736.66 512.14 723.07 502.52
  Q 712.59 495.11 696.89 490.27
  Q 689.45 487.98 677.07 487.46
  Q 665.89 486.99 657.00 487.01
  Q 621.01 487.08 591.12 487.03
  C 585.29 487.03 578.84 487.41 572.81 486.82
  A 0.49 0.49 0.0 0 1 572.38 486.23
  Z
  M 228.12 731.46
  Q 210.56 744.32 205.97 765.44
  Q 204.12 774.00 204.99 781.21
  C 206.08 790.12 209.47 801.44 214.61 808.63
  C 223.92 821.66 238.42 830.88 254.21 832.57
  C 287.57 836.13 313.41 812.20 316.25 779.41
  Q 316.89 772.08 313.90 762.84
  C 310.26 751.55 305.23 741.88 296.72 734.49
  C 289.96 728.62 280.91 723.63 271.97 722.79
  Q 262.09 721.86 250.12 723.15
  C 241.46 724.09 234.78 726.58 228.12 731.46
  Z
  M 739.52 737.30
  C 732.95 743.78 727.34 752.95 725.54 762.26
  C 722.99 775.53 723.00 791.19 729.02 803.00
  Q 734.03 812.83 742.18 819.55
  Q 758.21 832.76 778.09 832.90
  Q 789.42 832.97 799.48 828.90
  C 806.46 826.07 812.19 822.03 817.66 816.63
  C 823.14 811.24 827.27 805.57 830.20 798.63
  Q 834.42 788.64 834.52 777.31
  Q 834.68 757.43 821.71 741.20
  Q 815.12 732.95 805.36 727.79
  C 793.65 721.60 777.99 721.35 764.68 723.71
  C 755.35 725.36 746.09 730.83 739.52 737.30
  Z
  M 383.46 763.42
  C 376.32 764.84 371.67 767.81 371.21 775.27
  Q 369.96 795.54 386.98 806.03
  C 392.25 809.28 398.58 809.58 404.75 809.57
  Q 499.29 809.52 635.51 809.58
  Q 655.18 809.59 663.83 792.36
  C 667.06 785.91 670.15 773.26 664.90 767.09
  C 662.82 764.65 656.90 762.89 654.01 762.45
  Q 648.78 761.64 639.00 761.65
  Q 525.16 761.74 412.21 761.66
  Q 405.94 761.65 397.80 762.09
  Q 387.36 762.64 383.46 763.42
  Z"
/>
</svg>
